PathFileType	3	(X/Y/Z)	D:\minhoCalibration\240510\subject3_KPNP\preferred\preferred09.trc
DataRate	CameraRate	NumFrames	NumMarkers	Units	OrigDataRate	OrigDataStartFrame	OrigNumFrames
200.0	200.0	18	10	mm	200.0	135	116	
Frame#	Time	Left_Ankle_Outer1			Left_Ankle_Inner1			Left_Knee_Outer1			Left_Knee_Inner1			Left_Wrist1			Right_Wrist1			Right_Knee_Inner1			Right_Knee_Outer1			Right_Ankle_Inner1			Right_Ankle_Outer1			
		X1	Y1	Z1	X2	Y2	Z2	X3	Y3	Z3	X4	Y4	Z4	X5	Y5	Z5	X6	Y6	Z6	X7	Y7	Z7	X8	Y8	Z8	X9	Y9	Z9	X10	Y10	Z10	
135	0.665	-295.24051	90.835899	-534.85236	-351.82742	100.23196	-536.73785	-225.42589	506.84143	-399.73792	-330.56192	507.2077	-397.21524	-190.88521	881.52936	-557.57013	-530.34027	899.03442	-682.4043	-620.03796	454.54785	-692.92261	-678.02191	537.95746	-757.63367	-464.04608	225.90741	-1010.9664	-536.32666	264.55832	-1070.9958
136	0.67	-294.34665	91.256615	-534.17694	-350.41592	101.25723	-536.34882	-222.75551	507.87592	-399.95944	-327.24234	508.62961	-396.68283	-186.32021	885.41284	-555.39136	-529.56915	903.94397	-671.82501	-623.84711	459.9184	-672.73578	-682.42651	543.44049	-738.2345	-469.60336	240.05032	-999.61401	-544.85809	276.73059	-1058.0219
137	0.675	-292.87766	92.154594	-533.69812	-349.10043	102.1454	-535.71014	-219.82979	508.95541	-400.746	-324.26089	510.10532	-395.97165	-181.55087	889.35931	-553.63092	-528.867	908.94958	-660.33051	-625.96423	465.48157	-652.14111	-686.41919	549.11353	-718.01062	-474.87827	255.23409	-987.60309	-553.47156	289.39594	-1043.7872
138	0.68	-291.44659	93.11142	-533.39984	-347.94763	103.50841	-535.4386	-216.70811	510.25235	-402.13525	-320.89029	511.5502	-395.70377	-176.35828	893.42566	-552.70581	-527.54156	914.73688	-648.71588	-626.46954	470.81592	-631.40497	-690.04449	554.86755	-696.77063	-480.57684	271.24799	-975.06335	-561.29547	303.11697	-1029.0754
139	0.685	-290.31232	94.160797	-532.87866	-346.92838	104.85073	-534.84302	-213.57048	511.49939	-403.86465	-317.37769	513.05078	-395.56802	-171.76659	897.3595	-552.20691	-525.32434	920.60144	-637.47791	-625.73785	476.57907	-610.42236	-693.34979	561.07617	-674.51288	-486.09036	287.20065	-961.05554	-568.55341	318.10571	-1013.9836
140	0.69	-289.32254	95.267914	-532.375	-345.81821	106.36855	-534.36115	-210.3448	512.73248	-405.97754	-314.1777	514.78613	-394.94699	-166.12804	901.30157	-552.59955	-523.49768	926.4375	-625.61841	-623.72821	482.60898	-588.6286	-696.1416	567.18109	-651.6355	-491.78949	303.5683	-946.17194	-575.54828	334.70996	-996.82623
141	0.695	-288.13226	96.806236	-532.02429	-344.78503	108.05186	-533.85999	-207.4705	513.95129	-408.18024	-310.57678	516.28241	-396.01028	-161.12007	904.9856	-553.7749	-520.797	932.93811	-613.73126	-621.16968	488.7977	-568.41315	-698.78772	573.61536	-624.76678	-497.6203	320.13055	-930.42957	-581.98596	352.22617	-979.93195
142	0.7	-287.18475	98.459442	-531.4989	-343.98422	110.03907	-533.14587	-204.90265	515.2027	-410.52563	-307.20871	517.97113	-396.46118	-155.57243	908.5965	-555.63519	-517.81226	939.62122	-601.65747	-617.5791	495.3566	-547.22217	-700.73285	581.08173	-598.78638	-503.46561	336.94299	-914.02258	-587.65387	370.28915	-962.34991
143	0.705	-286.73511	99.697502	-530.61243	-343.32657	112.01796	-532.25177	-201.99883	516.65192	-412.95795	-304.03018	519.74323	-396.90265	-150.2825	911.82928	-558.20819	-513.91418	946.59113	-590.28235	-613.74664	502.599	-526.16669	-702.21497	589.40436	-571.69128	-509.46094	353.96692	-896.91913	-594.23883	388.55991	-942.65674
144	0.71	-286.15985	101.69675	-529.8714	-342.83716	114.16438	-531.06152	-199.13594	518.30359	-415.28473	-300.87296	522.15295	-397.48849	-144.79803	915.14331	-561.79132	-509.61661	953.47217	-579.30042	-609.56543	510.53601	-504.91934	-702.38428	598.75775	-544.02362	-515.9574	371.05563	-879.20789	-601.59546	408.11682	-922.1123
145	0.715	-285.31696	103.8692	-529.15186	-342.48511	116.54545	-529.74231	-196.47058	520.09937	-417.30676	-298.05032	524.38129	-397.9227	-139.07991	918.28064	-566.12787	-504.60052	960.46088	-569.08472	-605.31708	519.32404	-483.33438	-701.5166	609.57251	-515.95929	-522.87372	388.28552	-860.88397	-609.90344	426.09137	-899.29102
146	0.72	-285.15771	105.78152	-528.11475	-342.52682	118.70073	-527.85321	-193.72401	522.06293	-419.28369	-294.61469	526.68201	-398.94696	-133.87608	921.1554	-571.26746	-499.59366	967.87317	-558.68628	-600.91388	529.17822	-461.29694	-699.16571	621.39209	-488.0896	-530.43982	405.88553	-842.16449	-617.53308	445.62161	-877.93909
147	0.725	-284.56689	108.09937	-527.19531	-342.37256	121.47149	-526.24036	-190.81566	524.2774	-421.13535	-291.62881	529.08966	-399.716	-128.17917	924.05573	-577.01721	-493.974	975.32489	-549.13654	-596.37549	539.99725	-438.55957	-695.70959	634.06329	-460.06357	-538.04535	423.60855	-822.8631	-626.67859	465.58115	-854.4494
148	0.73	-284.38495	110.28442	-526.15314	-341.67578	124.20576	-525.12219	-187.76805	526.59088	-423.07993	-288.30667	531.76752	-400.46228	-123.63856	926.34344	-583.25458	-487.1496	983.30133	-540.30005	-591.35931	552.01715	-414.68167	-690.91266	647.55219	-432.35019	-546.36884	441.43594	-802.84277	-635.11646	484.9101	-831.3244
149	0.735	-284.28122	112.47532	-524.9942	-341.71576	126.93362	-523.125	-184.87299	528.91028	-425.18768	-284.63757	534.55219	-401.39966	-119.6862	928.39398	-590.04285	-480.85736	991.05621	-531.95435	-585.86108	565.27478	-390.68005	-684.87567	662.16699	-405.1272	-555.25208	459.04434	-781.92737	-645.12122	504.70776	-805.77264
150	0.74	-284.26358	114.85336	-523.94379	-341.71158	129.66956	-520.9256	-181.07448	531.52679	-427.22647	-281.06876	537.82098	-401.19986	-116.28905	930.22705	-597.22534	-475.07266	998.66223	-523.87268	-579.5354	579.65454	-366.5871	-677.7262	677.69543	-378.61237	-563.85931	477.85052	-761.1972	-654.59705	524.54181	-781.21088
151	0.745	-284.24142	116.93276	-522.82507	-341.7446	132.46344	-518.6676	-177.66487	533.86395	-429.72714	-276.9451	540.68945	-401.62271	-113.37964	932.04456	-604.65204	-467.89441	1006.7181	-516.72009	-572.39917	594.93933	-342.42233	-669.6449	694.22314	-352.54446	-573.82129	496.03564	-739.08209	-664.83417	544.02112	-754.6745
152	0.75	-284.46341	119.01591	-521.72675	-341.77103	135.08681	-516.31012	-173.74922	536.21289	-432.40201	-272.31546	543.97296	-401.75565	-110.84789	933.69775	-612.36182	-461.1261	1014.5891	-510.04391	-564.12769	611.01306	-318.5513	-660.66205	711.63049	-327.01154	-584.08313	514.16846	-716.2193	-675.05469	562.9389	-727.11792
